# xmcd
#
# Track frame offsets:
#	150
#	19942
#	39162
#	55358
#	73375
#	90399
#	109944
#	126319
#	143836
#	159351
#
# Disc length: 2350 seconds
#
# Revision: 0
# Processed by: cddbd v1.5.2PL0 Copyright (c) Steve Scherf et al.
# Submitted via: EasyCDDAExtractor 16.1.0.1
#
DISCID=88092c0a
DTITLE=Hakan Küçükçınar - Aşk Merdivenleri
DYEAR=2012
DGENRE=
TTITLE0=Aşk Merdivenleri
TTITLE1=Kördüğüm
TTITLE2=Dolunayda
TTITLE3=İnanmadım
TTITLE4=Mavi Yaz Akşamlarımız
TTITLE5=Gidelim
TTITLE6=Her Şey Seninle Anlamlı
TTITLE7=Kaybettiklerim
TTITLE8=Her Şey Yolunda
TTITLE9=Rüzgarlı Yollar
EXTD=
EXTT0=
EXTT1=
EXTT2=
EXTT3=
EXTT4=
EXTT5=
EXTT6=
EXTT7=
EXTT8=
EXTT9=
PLAYORDER=
